HIERARCHY
ROOT hip
{
	OFFSET	0.00  0.00  0.00 
	CHANNELS 6 Xposition Yposition Zposition Xrotation Zrotation Yrotation
	JOINT waist
	{
		OFFSET	0.000000 2.191865 -0.079388
		CHANNELS 3 Xrotation Zrotation Yrotation
		JOINT abdomen
		{
			OFFSET	0.000000 2.770984 0.119082
			CHANNELS 3 Xrotation Zrotation Yrotation
			JOINT chest
			{
				OFFSET	0.000000 2.879627 -0.290598
				CHANNELS 3 Xrotation Zrotation Yrotation
				JOINT neck
				{
					OFFSET	0.000000 12.342733 -1.613748
					CHANNELS 3 Xrotation Zrotation Yrotation
					JOINT head
					{
						OFFSET	0.000000 4.485597 1.807195
						CHANNELS 3 Xrotation Zrotation Yrotation
						End Site
						{
							OFFSET 0.000000 7.191734 2.024398
						}
					}
				}
				JOINT lCollar
				{
					OFFSET	1.858774 10.237258 -1.915852
					CHANNELS 3 Zrotation Yrotation Xrotation
					JOINT lShldr
					{
						OFFSET	6.103279 0.000102 -0.038601
						CHANNELS 3 Zrotation Yrotation Xrotation
						JOINT lForeArm
						{
							OFFSET	10.574100 -0.365985 -0.655940
							CHANNELS 3 Zrotation Yrotation Xrotation
							JOINT lHand
							{
								OFFSET	13.213392 -0.641131 0.276866
								CHANNELS 3 Zrotation Yrotation Xrotation
								JOINT lThumb1
								{
									OFFSET	1.920964 -1.225712 1.722395
									CHANNELS 3 Zrotation Yrotation Xrotation
									JOINT lThumb2
									{
										OFFSET	0.248544 -0.143036 0.768265
										CHANNELS 3 Zrotation Yrotation Xrotation
										JOINT lThumb3
										{
											OFFSET	0.628484 -0.225174 0.508305
											CHANNELS 3 Zrotation Yrotation Xrotation
											End Site
											{
												OFFSET 0.831712 -0.207978 0.609962
											}
										}
									}
								}
								JOINT lIndex1
								{
									OFFSET	5.093442 -0.710319 1.829884
									CHANNELS 3 Zrotation Yrotation Xrotation
									JOINT lIndex2
									{
										OFFSET	0.889470 -0.051998 0.127073
										CHANNELS 3 Zrotation Yrotation Xrotation
										JOINT lIndex3
										{
											OFFSET	0.889570 -0.155981 0.127073
											CHANNELS 3 Zrotation Yrotation Xrotation
											End Site
											{
												OFFSET 0.797115 -0.294470 0.076252
											}
										}
									}
								}
								JOINT lMid1
								{
									OFFSET	5.154641 -0.519844 0.864111
									CHANNELS 3 Zrotation Yrotation Xrotation
									JOINT lMid2
									{
										OFFSET	0.928821 -0.051992 0.050831
										CHANNELS 3 Zrotation Yrotation Xrotation
										JOINT lMid3
										{
											OFFSET	0.984253 -0.311865 0.050831
											CHANNELS 3 Zrotation Yrotation Xrotation
											End Site
											{
												OFFSET 0.779717 -0.606438 -0.050831
											}
										}
									}
								}
								JOINT lRing1
								{
									OFFSET	4.924408 -0.754930 -0.235503
									CHANNELS 3 Zrotation Yrotation Xrotation
									JOINT lRing2
									{
										OFFSET	0.981624 -0.036924 -0.108278
										CHANNELS 3 Zrotation Yrotation Xrotation
										JOINT lRing3
										{
											OFFSET	0.805613 -0.205247 -0.041717
											CHANNELS 3 Zrotation Yrotation Xrotation
											End Site
											{
												OFFSET 0.667431 -0.470481 -0.035991
											}
										}
									}
								}
								JOINT lPinky1
								{
									OFFSET	4.535460 -0.816635 -1.006206
									CHANNELS 3 Zrotation Yrotation Xrotation
									JOINT lPinky2
									{
										OFFSET	0.690596 -0.064334 -0.168800
										CHANNELS 3 Zrotation Yrotation Xrotation
										JOINT lPinky3
										{
											OFFSET	0.598039 -0.111176 -0.071973
											CHANNELS 3 Zrotation Yrotation Xrotation
											End Site
											{
												OFFSET 0.422025 -0.290925 -0.035981
											}
										}
									}
								}
							}
						}
					}
				}
				JOINT rCollar
				{
					OFFSET	-1.858774 10.237258 -1.915852
					CHANNELS 3 Zrotation Yrotation Xrotation
					JOINT rShldr
					{
						OFFSET	-6.103279 0.000102 -0.038601
						CHANNELS 3 Zrotation Yrotation Xrotation
						JOINT rForeArm
						{
							OFFSET	-10.574100 -0.365985 -0.655940
							CHANNELS 3 Zrotation Yrotation Xrotation
							JOINT rHand
							{
								OFFSET	-13.213392 -0.641131 0.276866
								CHANNELS 3 Zrotation Yrotation Xrotation
								JOINT rIndex1
								{
									OFFSET	-5.093442 -0.710319 1.829884
									CHANNELS 3 Zrotation Yrotation Xrotation
									JOINT rIndex2
									{
										OFFSET	-0.889470 -0.051998 0.127073
										CHANNELS 3 Zrotation Yrotation Xrotation
										JOINT rIndex3
										{
											OFFSET	-0.889570 -0.155981 0.127073
											CHANNELS 3 Zrotation Yrotation Xrotation
											End Site
											{
												OFFSET -0.797115 -0.294470 0.076252
											}
										}
									}
								}
								JOINT rThumb1
								{
									OFFSET	-1.920964 -1.225712 1.722395
									CHANNELS 3 Zrotation Yrotation Xrotation
									JOINT rThumb2
									{
										OFFSET	-0.248544 -0.143036 0.768265
										CHANNELS 3 Zrotation Yrotation Xrotation
										JOINT rThumb3
										{
											OFFSET	-0.628484 -0.225174 0.508305
											CHANNELS 3 Zrotation Yrotation Xrotation
											End Site
											{
												OFFSET -0.831712 -0.207978 0.609962
											}
										}
									}
								}
								JOINT rMid1
								{
									OFFSET	-5.154641 -0.519844 0.864111
									CHANNELS 3 Zrotation Yrotation Xrotation
									JOINT rMid2
									{
										OFFSET	-0.928821 -0.051992 0.050831
										CHANNELS 3 Zrotation Yrotation Xrotation
										JOINT rMid3
										{
											OFFSET	-0.984253 -0.311865 0.050831
											CHANNELS 3 Zrotation Yrotation Xrotation
											End Site
											{
												OFFSET -0.779717 -0.606438 -0.050831
											}
										}
									}
								}
								JOINT rRing1
								{
									OFFSET	-4.924408 -0.754930 -0.235503
									CHANNELS 3 Zrotation Yrotation Xrotation
									JOINT rRing2
									{
										OFFSET	-0.981624 -0.036924 -0.108278
										CHANNELS 3 Zrotation Yrotation Xrotation
										JOINT rRing3
										{
											OFFSET	-0.805613 -0.205247 -0.041717
											CHANNELS 3 Zrotation Yrotation Xrotation
											End Site
											{
												OFFSET -0.667431 -0.470481 -0.035991
											}
										}
									}
								}
								JOINT rPinky1
								{
									OFFSET	-4.535460 -0.816635 -1.006206
									CHANNELS 3 Zrotation Yrotation Xrotation
									JOINT rPinky2
									{
										OFFSET	-0.690596 -0.064334 -0.168800
										CHANNELS 3 Zrotation Yrotation Xrotation
										JOINT rPinky3
										{
											OFFSET	-0.598039 -0.111176 -0.071973
											CHANNELS 3 Zrotation Yrotation Xrotation
											End Site
											{
												OFFSET -0.422025 -0.290925 -0.035981
											}
										}
									}
								}
							}
						}
					}
				}
			}
		}
	}
	JOINT lThigh
	{
		OFFSET	5.761895 -0.730553 0.000101
		CHANNELS 3 Xrotation Zrotation Yrotation
		JOINT lShin
		{
			OFFSET	-1.171020 -18.459274 1.627449
			CHANNELS 3 Xrotation Zrotation Yrotation
			JOINT lFoot
			{
				OFFSET	-0.883715 -16.872776 -3.357785
				CHANNELS 3 Xrotation Zrotation Yrotation
				JOINT lToe
				{
					OFFSET	1.287613 -2.778491 2.836049
					CHANNELS 3 Xrotation Yrotation Zrotation
					End Site
					{
						OFFSET 1.362641 -0.436631 3.828194
					}
				}
			}
		}
	}
	JOINT rThigh
	{
		OFFSET	-5.761895 -0.730553 0.000101
		CHANNELS 3 Xrotation Zrotation Yrotation
		JOINT rShin
		{
			OFFSET	1.171020 -18.459274 1.627449
			CHANNELS 3 Xrotation Zrotation Yrotation
			JOINT rFoot
			{
				OFFSET	0.883715 -16.872776 -3.357785
				CHANNELS 3 Xrotation Zrotation Yrotation
				JOINT rToe
				{
					OFFSET	-1.287613 -2.778491 2.836049
					CHANNELS 3 Xrotation Yrotation Zrotation
					End Site
					{
						OFFSET -1.362641 -0.436631 3.828194
					}
				}
			}
		}
	}
}
MOTION
Frames:     5
Frame Time: 0.033333
-0.011507 39.667458 -1.637493 -0.003070 -1.372216 4.595085 1.887286 0.006022 -2.600289 3.569375 2.698225 -2.755888 11.437381 0.099905 0.195352 -16.347698 0.169919 -0.205368 16.581760 -3.476570 1.598116 -9.170524 -15.240463 -0.241699 -68.616905 -6.867831 1.376164 -0.015535 -11.050556 -12.203186 36.170799 -3.959244 -2.093283 6.816569 20.665493 13.910007 0.737394 6.611394 1.889753 1.498819 15.763451 3.413396 -6.956299 4.701649 1.270699 -21.001810 0.276186 2.922947 -22.089087 0.023032 1.986535 -17.029705 4.351514 1.157491 -21.185535 0.024418 1.037216 -22.147018 0.158880 -1.197976 -16.906878 -5.698571 -1.553347 -21.183294 -0.071573 -1.074135 -22.155260 0.111879 -1.023267 -15.615254 -10.114109 -5.740327 -21.060091 -0.238135 -2.484818 -22.121132 0.168472 -1.620437 9.140521 15.211239 -0.245707 70.938721 -3.668910 1.348067 -0.003875 11.038736 -12.202783 -26.978180 4.164918 -0.798048 16.136356 -4.957547 2.581431 30.273422 -0.757435 4.149042 30.460579 -0.252729 2.722477 -6.853165 -20.699158 13.915245 -0.760142 -6.648059 1.901676 -1.522521 -15.800728 3.422143 26.362656 -4.554877 1.639090 30.547972 -0.179312 1.485015 30.544096 -0.116499 -1.643579 26.190529 6.004581 -2.357155 30.545458 0.204783 -1.523079 30.555273 -0.070234 -1.400634 24.322216 10.694313 -7.899513 30.362700 0.606117 -3.522071 30.508303 -0.088032 -2.223913 4.470247 -0.094112 3.447198 19.498022 -0.205758 -1.013874 1.547101 14.384548 -15.059151 -17.321138 -1.264381 5.986789 -9.488394 2.503473 -4.127244 4.723382 0.085918 -0.561115 5.606966 -5.894934 7.562450 0.101073 -0.011717 0.026047 
-0.011507 39.714291 -1.637493 -0.002959 -1.744130 4.637204 1.974419 0.150803 -2.186156 3.986006 3.124017 -2.427867 11.437381 0.099905 0.195352 -16.601788 0.357954 -0.418037 16.602407 -3.410775 1.579022 -9.170524 -15.240463 -0.241699 -68.599266 -6.769821 1.376229 -0.015535 -11.050556 -12.203186 35.828526 -3.969237 -2.081262 6.816569 20.665493 13.910007 0.737394 6.611394 1.889753 1.498819 15.763451 3.413396 -7.004074 4.702285 1.277502 -21.059792 0.278451 2.930818 -22.127985 0.023762 1.990004 -17.078264 4.352218 1.160054 -21.244055 0.025039 1.040068 -22.186026 0.158756 -1.200092 -16.955074 -5.699873 -1.557583 -21.241810 -0.072293 -1.077005 -22.194281 0.111733 -1.025063 -15.660619 -10.116387 -5.753078 -21.118250 -0.240024 -2.491458 -22.160101 0.168222 -1.623292 9.140521 15.211239 -0.245707 70.243538 -3.096381 1.354465 -0.003875 11.038736 -12.202783 -27.562279 4.160618 -1.764687 15.544111 -4.936652 2.498613 29.674875 -0.721681 4.072375 29.916151 -0.235793 2.675938 -6.853165 -20.699158 13.915245 -0.760142 -6.648059 1.901676 -1.522521 -15.800728 3.422143 25.760481 -4.541288 1.609165 29.943336 -0.168362 1.457031 29.997971 -0.122392 -1.614412 25.592833 5.980372 -2.306797 29.940861 0.192746 -1.494874 30.008949 -0.075795 -1.375939 23.760118 10.645521 -7.759508 29.762131 0.576093 -3.457290 29.962843 -0.097121 -2.184749 6.425140 0.426852 3.171089 18.381693 -0.205653 -1.040322 2.041602 13.406704 -14.693888 -16.288130 -1.138727 5.640604 -7.798522 2.982299 -4.647025 4.733123 0.280105 0.367676 3.712045 -6.051525 7.674575 0.027425 -0.010302 0.000001 
-0.011507 39.759315 -1.637493 -0.002254 -1.646402 4.092007 2.081146 0.307015 -1.733413 4.445541 2.835332 -2.104147 11.437381 0.099905 0.195352 -16.601515 0.202221 -0.334173 16.612804 -3.373177 1.568448 -9.170524 -15.240463 -0.241699 -68.555565 -6.505267 1.377499 -0.015535 -11.050556 -12.203186 35.310215 -3.984233 -2.062948 6.816569 20.665493 13.910007 0.737394 6.611394 1.889753 1.498819 15.763451 3.413396 -7.233387 4.705417 1.310950 -21.282045 0.287211 2.960966 -22.341936 0.027819 2.009073 -17.311348 4.355627 1.172352 -21.468382 0.027449 1.050991 -22.400589 0.158046 -1.211726 -17.186415 -5.706173 -1.578870 -21.466120 -0.075081 -1.087995 -22.408920 0.110910 -1.034939 -15.878355 -10.127457 -5.809465 -21.341187 -0.247325 -2.516891 -22.374414 0.166813 -1.638989 9.140521 15.211239 -0.245707 70.294975 -2.226078 1.355273 -0.003875 11.038736 -12.202783 -28.344915 4.141930 -1.794973 14.808561 -4.911895 2.394830 28.941114 -0.678951 3.977923 29.255041 -0.215823 2.619212 -6.853165 -20.699158 13.915245 -0.760142 -6.648059 1.901676 -1.522521 -15.800728 3.422143 25.012623 -4.524855 1.571033 29.202162 -0.155344 1.422574 29.334810 -0.129173 -1.578920 24.850540 5.951032 -2.244159 29.199738 0.178399 -1.460098 29.345558 -0.082231 -1.345883 23.061979 10.586796 -7.587170 29.025908 0.540221 -3.377358 29.300489 -0.107657 -2.137083 7.957481 0.274257 2.950458 17.476439 -0.257575 -1.355168 3.144910 12.271711 -13.446886 -15.464885 -1.043126 5.363217 -6.918883 3.132062 -3.583388 5.501195 0.168073 -0.108715 2.172499 -6.153588 8.066120 -0.018603 -0.009403 -0.016275 
-0.011507 39.793465 -1.637493 -0.001525 -1.055181 3.262709 2.187965 0.494172 -1.242890 4.879869 1.624520 -1.843175 11.437381 0.099905 0.195352 -16.689388 0.062985 -0.183313 16.652485 -3.335579 1.557875 -9.170524 -15.240463 -0.241699 -68.515587 -6.045438 1.377496 -0.015535 -11.050556 -12.203186 34.625633 -4.003784 -2.038553 6.816569 20.665493 13.910007 0.737394 6.611394 1.889753 1.498819 15.763451 3.413396 -7.615578 4.710928 1.366135 -21.668560 0.302721 3.013367 -22.692032 0.034612 2.040245 -17.699820 4.361420 1.192815 -21.858513 0.031741 1.069967 -22.751682 0.156790 -1.230759 -17.571983 -5.716857 -1.612675 -21.856222 -0.080032 -1.107083 -22.760136 0.109484 -1.051092 -16.241251 -10.146369 -5.901058 -21.728897 -0.260258 -2.561053 -22.725100 0.164382 -1.664664 9.140521 15.211239 -0.245707 70.849648 -1.111567 1.353031 -0.003875 11.038736 -12.202783 -29.225349 4.120412 -1.828738 14.015676 -4.886693 2.282746 28.130043 -0.633133 3.872916 28.525856 -0.194558 2.556350 -6.853165 -20.699158 13.915245 -0.760142 -6.648059 1.901676 -1.522521 -15.800728 3.422143 24.206499 -4.507692 1.530524 28.382957 -0.141475 1.384296 28.603382 -0.136175 -1.539686 24.050417 5.920313 -2.176300 28.380596 0.163066 -1.421487 28.613869 -0.088924 -1.312663 22.309385 10.525823 -7.399529 28.212132 0.501769 -3.288584 28.569946 -0.118636 -2.084370 9.125362 -0.581039 2.282709 16.600538 -0.268376 -1.669411 4.466520 10.899025 -11.572315 -13.560642 -0.837508 4.717256 -5.903788 2.614275 -4.015332 6.857203 0.194094 0.145125 -0.299329 -6.336754 9.629455 -0.018603 -0.009403 -0.016275 
-0.011507 39.809669 -1.637493 -0.000845 -0.325312 2.328480 2.304683 0.702099 -0.724048 5.250002 0.199559 -1.552183 11.437381 0.099905 0.195352 -16.767590 -0.085308 -0.028789 16.780962 -3.241585 1.531440 -9.170524 -15.240463 -0.241699 -68.498093 -5.429757 1.379182 -0.015535 -11.050556 -12.203186 33.833443 -4.026041 -2.010039 6.816569 20.665493 13.910007 0.737394 6.611394 1.889753 1.498819 15.763451 3.413396 -8.131530 4.718950 1.440294 -22.190340 0.324221 3.083870 -23.158821 0.043965 2.081740 -18.224264 4.369462 1.220378 -22.385185 0.037740 1.095536 -23.219812 0.154934 -1.256124 -18.092503 -5.731644 -1.659168 -22.382854 -0.086922 -1.132797 -23.228428 0.107428 -1.072616 -16.731138 -10.172823 -6.026750 -22.252283 -0.278192 -2.620577 -23.192688 0.160895 -1.698845 9.140521 15.211239 -0.245707 71.314026 0.118429 1.351246 -0.003875 11.038736 -12.202783 -30.174221 4.096642 -1.864755 13.184560 -4.861936 2.164982 27.289925 -0.587250 3.763490 27.767483 -0.173293 2.490726 -6.853165 -20.699158 13.915245 -0.760142 -6.648059 1.901676 -1.522521 -15.800728 3.422143 23.361532 -4.490319 1.487043 27.534491 -0.127690 1.344445 27.842695 -0.142925 -1.498815 23.211739 5.889129 -2.104769 27.532185 0.147770 -1.381267 27.852915 -0.095435 -1.278012 21.520473 10.464517 -7.202533 27.369240 0.463279 -3.195985 27.810173 -0.129342 -2.029404 9.431912 -1.438431 2.621400 16.482109 -0.511278 -3.020513 5.140685 9.750051 -9.618567 -12.598554 -0.741894 4.388611 -5.005795 1.936070 -3.880275 8.285078 0.157325 0.145602 -2.658690 -6.273736 11.101977 -0.018603 -0.009403 -0.016275 
